<svg width="84" height="25" viewBox="0 0 84 25" fill="none" xmlns="http://www.w3.org/2000/svg">
<path d="M17.5197 21.6802L13.6264 14.3066C13.125 13.3038 12.5646 12.5665 11.8272 12.0356L17.1952 3.4822C17.6671 2.71535 17.3722 2.18445 16.4874 2.18445H13.0955C11.5618 2.18445 11.2963 2.36141 10.736 3.27574L6.48877 9.97096H5.83989V3.42321C5.83989 2.50888 5.54494 2.18445 4.60112 2.18445H1.26826C0.324438 2.18445 0 2.50888 0 3.42321V21.8867C0 22.801 0.324438 23.1255 1.26826 23.1255H4.60112C5.54494 23.1255 5.83989 22.801 5.83989 21.8867V15.1325H6.37079C7.49157 15.1325 7.9045 15.6634 8.37641 16.6072L10.9424 21.8867C11.4438 22.919 12.0042 23.1255 13.5674 23.1255H16.7528C17.7261 23.1255 17.9326 22.4766 17.5197 21.6802Z" fill="#083922"/>
<g clip-path="url(#clip0_12_19)">
<g clip-path="url(#clip1_12_19)">
<path d="M40.6433 21.2182H32.0014C30.1054 21.2115 28.2623 20.5925 26.7465 19.4534H24.9523C23.6562 19.4433 22.3878 19.0777 21.2851 18.3966C22.3496 20.3084 23.9026 21.9033 25.7854 23.0183C27.6682 24.1333 29.8133 24.7284 32.0014 24.7428H44.1679V19.4534H40.6433V21.2182ZM40.6334 0.0461426L37.2612 0.075637V0.0461426H33.7662V7.10022H24.9523V10.6248H33.7662H37.2907V7.10022V3.57564H40.6531V14.1641H24.9523C24.4846 14.1628 24.0365 13.9765 23.7058 13.6458C23.3752 13.3151 23.1888 12.867 23.1875 12.3994V3.55106H32.0358V0.0461426L26.717 0.075637V0.0461426L23.1875 0.075637V0.0461426H19.6629V12.4043C19.6668 13.8059 20.2253 15.149 21.2164 16.1401C22.2075 17.1312 23.5506 17.6897 24.9523 17.6936H40.6334H44.1679V0.0461426H40.6334Z" fill="#083922"/>
</g>
</g>
<path d="M51.3006 2.18445H47.9677C47.0239 2.18445 46.6994 2.50888 46.6994 3.42321V21.8867C46.6994 22.801 47.0239 23.1255 47.9677 23.1255H59.6475C60.5618 23.1255 60.8862 22.801 60.8862 21.8867V19.2027C60.8862 18.2589 60.5618 17.9639 59.6475 17.9639H52.5393V3.42321C52.5393 2.50888 52.2444 2.18445 51.3006 2.18445Z" fill="#083922"/>
<path d="M67.0309 2.18445H63.698C62.7542 2.18445 62.4298 2.50888 62.4298 3.42321V21.8867C62.4298 22.801 62.7542 23.1255 63.698 23.1255H75.3778C76.2921 23.1255 76.6166 22.801 76.6166 21.8867V19.2027C76.6166 18.2589 76.2921 17.9639 75.3778 17.9639H68.2697V3.42321C68.2697 2.50888 67.9747 2.18445 67.0309 2.18445Z" fill="#083922"/>
<path d="M78.1601 3.36422V21.9457C78.1601 22.8305 78.4551 23.1255 79.3399 23.1255H82.8202C83.7051 23.1255 84 22.8305 84 21.9457V3.36422C84 2.47939 83.7051 2.18445 82.8202 2.18445H79.3399C78.4551 2.18445 78.1601 2.47939 78.1601 3.36422Z" fill="#083922"/>
<defs>
<clipPath id="clip0_12_19">
<rect width="25.4609" height="24.5538" fill="white" transform="translate(19.6629 0.0461426)"/>
</clipPath>
<clipPath id="clip1_12_19">
<rect width="24.5049" height="24.6966" fill="white" transform="translate(19.6629 0.0461426)"/>
</clipPath>
</defs>
</svg>
