<svg width="18" height="18" viewBox="0 0 18 18" fill="none" xmlns="http://www.w3.org/2000/svg">
<path d="M13.5754 4.57627C13.5754 2.05292 11.5227 0 8.99962 0C6.47653 0 4.42383 2.05292 4.42383 4.57627C4.42383 6.99681 6.31363 8.97895 8.69456 9.13698V17.6949C8.69456 17.8636 8.83123 18 8.99962 18C9.16801 18 9.30467 17.8636 9.30467 17.6949V9.13698C11.6856 8.97895 13.5754 6.99681 13.5754 4.57627ZM7.47435 4.57627C6.80141 4.57627 6.25414 4.02895 6.25414 3.35593C6.25414 2.68292 6.80141 2.13559 7.47435 2.13559C8.1473 2.13559 8.69456 2.68292 8.69456 3.35593C8.69456 4.02895 8.1473 4.57627 7.47435 4.57627Z" fill="#1D221F"/>
</svg>
