<svg width="18" height="16" viewBox="0 0 18 16" fill="none" xmlns="http://www.w3.org/2000/svg">
<g clip-path="url(#clip0_28_56)">
<path d="M3.87873 7.71368C2.2914 7.71368 1 9.00509 1 10.5924C1 11.3949 1.43879 12.3642 2.30421 13.4733C2.92232 14.2655 3.53318 14.8383 3.5589 14.8623L3.87877 15.1609L4.19863 14.8623C4.22435 14.8383 4.83521 14.2655 5.45332 13.4733C6.31871 12.3642 6.75753 11.3949 6.75753 10.5924C6.7575 9.00509 5.4661 7.71368 3.87873 7.71368ZM3.87873 11.5238C3.3652 11.5238 2.94741 11.106 2.94741 10.5924C2.94741 10.0789 3.3652 9.66113 3.87873 9.66113C4.39226 9.66113 4.81005 10.0789 4.81005 10.5924C4.81005 11.106 4.39226 11.5238 3.87873 11.5238Z" fill="#1D221F"/>
<path d="M14.1212 0.839111C12.5338 0.839111 11.2424 2.13051 11.2424 3.71784C11.2424 4.52034 11.6812 5.48959 12.5466 6.5987C13.1647 7.39085 13.7756 7.96369 13.8013 7.98769L14.1211 8.28634L14.441 7.98769C14.4667 7.96369 15.0776 7.39085 15.6957 6.5987C16.5611 5.48959 16.9999 4.52034 16.9999 3.71784C16.9999 2.13054 15.7085 0.839111 14.1212 0.839111ZM14.1212 4.6492C13.6076 4.6492 13.1898 4.23141 13.1898 3.71788C13.1898 3.20435 13.6076 2.78656 14.1212 2.78656C14.6347 2.78656 15.0525 3.20435 15.0525 3.71788C15.0525 4.23141 14.6347 4.6492 14.1212 4.6492Z" fill="#1D221F"/>
<path d="M12.4026 14.9884H5.75366V14.051H12.4026C13.0919 14.051 13.6526 13.4903 13.6526 12.8011C13.6526 12.1119 13.0919 11.5512 12.4026 11.5512H9.78122C8.57512 11.5512 7.59387 10.5699 7.59387 9.36383C7.59387 8.15773 8.57512 7.17651 9.78122 7.17651H12.2464V8.1139H9.78122C9.09196 8.1139 8.53125 8.67461 8.53125 9.36383C8.53125 10.0531 9.09196 10.6138 9.78122 10.6138H12.4026C13.6087 10.6138 14.59 11.595 14.59 12.8011C14.59 14.0072 13.6087 14.9884 12.4026 14.9884Z" fill="#1D221F"/>
</g>
<defs>
<clipPath id="clip0_28_56">
<rect width="16" height="16" fill="white" transform="translate(1)"/>
</clipPath>
</defs>
</svg>
