<svg width="18" height="16" viewBox="0 0 18 16" fill="none" xmlns="http://www.w3.org/2000/svg">
<g clip-path="url(#clip0_28_69)">
<path d="M9 3.07813C8.02655 3.07813 7.07495 3.36679 6.26555 3.90761C5.45616 4.44843 4.82531 5.21712 4.45278 6.11648C4.08026 7.01584 3.98279 8.00546 4.1727 8.96021C4.36261 9.91496 4.83137 10.792 5.51971 11.4803C6.20805 12.1686 7.08504 12.6374 8.03979 12.8273C8.99454 13.0172 9.98417 12.9197 10.8835 12.5472C11.7829 12.1747 12.5516 11.5438 13.0924 10.7344C13.6332 9.92505 13.9219 8.97345 13.9219 8C13.9205 6.69507 13.4014 5.444 12.4787 4.52128C11.556 3.59856 10.3049 3.07955 9 3.07813ZM11.2406 9.69688C11.197 9.75215 11.1415 9.79687 11.0782 9.82771C11.0149 9.85855 10.9454 9.87471 10.875 9.875C10.769 9.87584 10.6661 9.83933 10.5843 9.77188L8.70932 8.36563C8.65411 8.32195 8.60943 8.26641 8.57861 8.20311C8.54778 8.13982 8.5316 8.0704 8.53125 8V4.71875C8.53125 4.59443 8.58064 4.4752 8.66855 4.38729C8.75645 4.29939 8.87568 4.25 9 4.25C9.12432 4.25 9.24355 4.29939 9.33146 4.38729C9.41937 4.4752 9.46875 4.59443 9.46875 4.71875V7.775L11.1657 9.04062C11.2145 9.07823 11.2552 9.12524 11.2855 9.17888C11.3158 9.23252 11.335 9.2917 11.342 9.3529C11.349 9.4141 11.3436 9.47608 11.3262 9.53516C11.3088 9.59425 11.2797 9.64924 11.2406 9.69688Z" fill="#1D221F"/>
<path d="M9 0.96875C7.60935 0.96875 6.24993 1.38113 5.09365 2.15373C3.93737 2.92633 3.03615 4.02446 2.50398 5.30926C1.9718 6.59405 1.83255 8.0078 2.10386 9.37173C2.37516 10.7357 3.04482 11.9885 4.02816 12.9718C5.0115 13.9552 6.26435 14.6248 7.62827 14.8961C8.9922 15.1674 10.406 15.0282 11.6907 14.496C12.9755 13.9638 14.0737 13.0626 14.8463 11.9064C15.6189 10.7501 16.0313 9.39065 16.0313 8C16.029 6.13589 15.2875 4.34878 13.9693 3.03066C12.6512 1.71254 10.8641 0.971018 9 0.96875ZM9 13.8906C7.83495 13.8906 6.69606 13.5451 5.72735 12.8979C4.75864 12.2506 4.00363 11.3306 3.55778 10.2542C3.11194 9.17787 2.99528 7.99347 3.22257 6.8508C3.44986 5.70813 4.01089 4.65852 4.83471 3.8347C5.65853 3.01089 6.70813 2.44986 7.8508 2.22257C8.99347 1.99528 10.1779 2.11193 11.2542 2.55778C12.3306 3.00363 13.2506 3.75864 13.8979 4.72735C14.5451 5.69606 14.8906 6.83495 14.8906 8C14.8891 9.56183 14.268 11.0593 13.1636 12.1636C12.0593 13.268 10.5618 13.8891 9 13.8906Z" fill="#1D221F"/>
</g>
<defs>
<clipPath id="clip0_28_69">
<rect width="15" height="15" fill="white" transform="translate(1.5 0.5)"/>
</clipPath>
</defs>
</svg>
