<svg width="30" height="30" viewBox="0 0 30 30" fill="none" xmlns="http://www.w3.org/2000/svg">
<rect width="30" height="30" rx="3" fill="#B3FFDB"/>
<path d="M24.5197 24.4958L20.6264 17.1222C20.125 16.1194 19.5646 15.382 18.8272 14.8511L24.1952 6.29775C24.6671 5.5309 24.3722 5 23.4874 5H20.0955C18.5618 5 18.2963 5.17697 17.736 6.09129L13.4888 12.7865H12.8399V6.23876C12.8399 5.32444 12.5449 5 11.6011 5H8.26826C7.32444 5 7 5.32444 7 6.23876V24.7022C7 25.6166 7.32444 25.941 8.26826 25.941H11.6011C12.5449 25.941 12.8399 25.6166 12.8399 24.7022V17.948H13.3708C14.4916 17.948 14.9045 18.4789 15.3764 19.4228L17.9424 24.7022C18.4438 25.7346 19.0042 25.941 20.5674 25.941H23.7528C24.7261 25.941 24.9326 25.2921 24.5197 24.4958Z" fill="#083922"/>
</svg>
