<svg xmlns="http://www.w3.org/2000/svg" width="32" height="32" fill="none">
  <g clip-path="url(#a)">
    <path fill="#5DFFB2" d="M31.25 22.734V11.306a2.711 2.711 0 1 0-5.423 0v2.805L18.48 6.765a2.35 2.35 0 1 0-3.323 3.323l-1.678-1.677a2.35 2.35 0 1 0-3.324 3.323l.972.972a2.35 2.35 0 0 0-3.324 3.324l2.397 2.397a2.35 2.35 0 0 0-3.324 3.324l7.4 7.4c3.8 3.799 9.958 3.799 13.757 0l.954-.954a7.702 7.702 0 0 0 2.263-5.463Z"/>
    <path fill="#179057" d="m10.545 18.772-.345-.345-.855-.546a2.35 2.35 0 0 0-2.47 3.87s2.944 2.942 4.57 4.57c-1.486-2.575-1.786-5.77-.9-7.549ZM7.803 16.03l1.287 1.287c-.231-.715-.795-3.585.199-5.292a2.35 2.35 0 0 0-1.486 4.005ZM19.712 15.112a.467.467 0 0 1-.332-.137l-4.555-4.555a.469.469 0 1 1 .663-.663l4.555 4.555a.469.469 0 0 1-.331.8ZM16.441 18.49a.468.468 0 0 1-.331-.138l-5.315-5.315a.469.469 0 1 1 .663-.663l5.315 5.315a.469.469 0 0 1-.332.8Z"/>
    <path fill="#179057" d="M13.706 22.402a.467.467 0 0 1-.332-.137l-3.506-3.507a.469.469 0 1 1 .663-.663l3.506 3.507a.469.469 0 0 1-.331.8Z"/>
    <path fill="#083922" d="M22.596 6.91a3.557 3.557 0 0 0-2.734-2.64.469.469 0 0 1 .188-.92 4.498 4.498 0 0 1 3.457 3.34.469.469 0 1 1-.911.22ZM25.99 6.594A7.63 7.63 0 0 0 20.126.928a.469.469 0 0 1 .188-.918A8.57 8.57 0 0 1 26.9 6.374a.469.469 0 0 1-.911.22ZM7.441 27.297a4.498 4.498 0 0 1-3.34-3.457.469.469 0 1 1 .919-.188 3.557 3.557 0 0 0 2.64 2.733.469.469 0 0 1-.219.912ZM7.124 30.691A8.57 8.57 0 0 1 .76 24.103a.469.469 0 1 1 .919-.188 7.63 7.63 0 0 0 5.665 5.865.469.469 0 0 1-.22.911Z"/>
    <path fill="#179057" d="M23.477 24.044a.469.469 0 0 1-.43-.283 7.66 7.66 0 0 1 .489-7.036.469.469 0 1 1 .8.489 6.723 6.723 0 0 0-.43 6.174.469.469 0 0 1-.43.656Z"/>
  </g>
  <defs>
    <clipPath id="a">
      <path fill="#fff" d="M0 0h32v32H0z"/>
    </clipPath>
  </defs>
</svg>