<svg width="37" height="37" viewBox="0 0 37 37" fill="none" xmlns="http://www.w3.org/2000/svg">
<rect x="0.5" y="1.19986" width="36" height="35" rx="3.5" fill="white" fill-opacity="0.07"/>
<rect x="0.5" y="1.19986" width="36" height="35" rx="3.5" stroke="url(#paint0_linear_14_138)"/>
<path fill-rule="evenodd" clip-rule="evenodd" d="M13.9045 20.9136C16.561 20.9136 18.7188 23.0714 18.7188 25.7287C18.7188 26.4104 18.2891 27.0045 17.499 27.4131C16.6266 27.8646 15.2669 28.1061 13.9045 28.1061C12.5413 28.1061 11.1815 27.8646 10.3091 27.4131C9.519 27.0045 9.08937 26.4104 9.08937 25.7287C9.08937 23.0714 11.2471 20.9136 13.9045 20.9136ZM13.9045 22.2261C11.9716 22.2261 10.4019 23.7959 10.4019 25.7287C10.4019 25.9667 10.6355 26.1041 10.912 26.2476C11.6365 26.6221 12.7723 26.7936 13.9045 26.7936C15.0359 26.7936 16.1716 26.6221 16.8961 26.2476C17.1726 26.1041 17.4063 25.9667 17.4063 25.7287C17.4063 23.7959 15.8374 22.2261 13.9045 22.2261Z" fill="white" fill-opacity="0.88"/>
<path fill-rule="evenodd" clip-rule="evenodd" d="M23.0955 13.9136C25.7529 13.9136 27.9106 16.0714 27.9106 18.7287C27.9106 19.4104 27.481 20.0045 26.6909 20.4131C25.8185 20.8646 24.4588 21.1061 23.0955 21.1061C21.7331 21.1061 20.3734 20.8646 19.501 20.4131C18.7109 20.0045 18.2812 19.4104 18.2812 18.7287C18.2812 16.0714 20.439 13.9136 23.0955 13.9136ZM23.0955 15.2261C21.1626 15.2261 19.5937 16.7959 19.5937 18.7287C19.5937 18.9667 19.8274 19.1041 20.1039 19.2476C20.8284 19.6221 21.9641 19.7936 23.0955 19.7936C24.2278 19.7936 25.3635 19.6221 26.088 19.2476C26.3645 19.1041 26.5981 18.9667 26.5981 18.7287C26.5981 16.7959 25.0284 15.2261 23.0955 15.2261Z" fill="white" fill-opacity="0.88"/>
<path fill-rule="evenodd" clip-rule="evenodd" d="M13.9045 16.2936C15.5416 16.2936 16.8707 17.6227 16.8707 19.2599C16.8707 20.897 15.5416 22.2261 13.9045 22.2261C12.2674 22.2261 10.9374 20.897 10.9374 19.2599C10.9374 17.6227 12.2674 16.2936 13.9045 16.2936ZM13.9045 17.6061C12.991 17.6061 12.2499 18.3472 12.2499 19.2599C12.2499 20.1725 12.991 20.9136 13.9045 20.9136C14.8171 20.9136 15.5582 20.1725 15.5582 19.2599C15.5582 18.3472 14.8171 17.6061 13.9045 17.6061Z" fill="white" fill-opacity="0.88"/>
<path fill-rule="evenodd" clip-rule="evenodd" d="M23.0955 9.29361C24.7326 9.29361 26.0626 10.6227 26.0626 12.2599C26.0626 13.897 24.7326 15.2261 23.0955 15.2261C21.4584 15.2261 20.1293 13.897 20.1293 12.2599C20.1293 10.6227 21.4584 9.29361 23.0955 9.29361ZM23.0955 10.6061C22.1829 10.6061 21.4418 11.3472 21.4418 12.2599C21.4418 13.1725 22.1829 13.9136 23.0955 13.9136C24.009 13.9136 24.7501 13.1725 24.7501 12.2599C24.7501 11.3472 24.009 10.6061 23.0955 10.6061Z" fill="white" fill-opacity="0.88"/>
<path fill-rule="evenodd" clip-rule="evenodd" d="M26.5981 23.074C26.5981 22.7117 26.893 22.4186 27.2544 22.4186C27.6166 22.4186 27.9106 22.7135 27.9106 23.0757L27.908 25.7025C27.9063 27.0299 26.83 28.1061 25.5018 28.1061H20.6875C20.3253 28.1061 20.0313 27.8121 20.0313 27.4499C20.0313 27.0876 20.3253 26.7936 20.6875 26.7936H25.5018C26.1055 26.7936 26.5946 26.3045 26.5955 25.7007L26.5981 23.074Z" fill="white" fill-opacity="0.88"/>
<path fill-rule="evenodd" clip-rule="evenodd" d="M10.4062 14.3257C10.4062 14.688 10.1114 14.9811 9.74912 14.9811C9.38687 14.9811 9.09375 14.6862 9.09375 14.324L9.09637 11.6972C9.09725 10.3699 10.1744 9.29361 11.5026 9.29361H18.0625C18.4247 9.29361 18.7187 9.58761 18.7187 9.94986C18.7187 10.3121 18.4247 10.6061 18.0625 10.6061H11.5026C10.8989 10.6061 10.4097 11.0952 10.4089 11.699L10.4062 14.3257Z" fill="white" fill-opacity="0.88"/>
<defs>
<linearGradient id="paint0_linear_14_138" x1="13.0588" y1="-0.500141" x2="38.5129" y2="34.4063" gradientUnits="userSpaceOnUse">
<stop stop-color="#D1D1D1"/>
<stop offset="1" stop-color="#949494"/>
</linearGradient>
</defs>
</svg>
