<svg width="18" height="18" viewBox="0 0 18 18" fill="none" xmlns="http://www.w3.org/2000/svg">
<path fill-rule="evenodd" clip-rule="evenodd" d="M9.00002 0.714294C6.13047 0.714294 3.79736 3.06821 3.79736 5.97168C3.79736 6.95517 4.23053 8.17529 4.86102 9.39233C6.24916 12.0723 8.56146 14.7715 8.56146 14.7715C8.6709 14.8994 8.83122 14.9734 9.00002 14.9734C9.16882 14.9734 9.32914 14.8994 9.43859 14.7715C9.43859 14.7715 11.7509 12.0723 13.139 9.39233C13.7695 8.17529 14.2027 6.95517 14.2027 5.97168C14.2027 3.06821 11.8696 0.714294 9.00002 0.714294ZM9.00002 3.79735C7.83 3.79735 6.88042 4.74693 6.88042 5.91695C6.88042 7.08697 7.83 8.03655 9.00002 8.03655C10.17 8.03655 11.1196 7.08697 11.1196 5.91695C11.1196 4.74693 10.17 3.79735 9.00002 3.79735Z" fill="#1D221F"/>
<path fill-rule="evenodd" clip-rule="evenodd" d="M12.6874 13.1444C13.314 13.3325 13.8304 13.5652 14.1873 13.8381C14.4185 14.0138 14.5881 14.1857 14.5881 14.3953C14.5881 14.5187 14.5179 14.6304 14.4193 14.7422C14.2559 14.9264 14.0131 15.0921 13.7125 15.2463C12.6504 15.7896 10.9331 16.1296 9.00004 16.1296C7.06697 16.1296 5.34971 15.7896 4.28759 15.2463C3.987 15.0921 3.7442 14.9264 3.5808 14.7422C3.48214 14.6304 3.41201 14.5187 3.41201 14.3953C3.41201 14.1857 3.58157 14.0138 3.8128 13.8381C4.16967 13.5652 4.68608 13.3325 5.31271 13.1444C5.61793 13.0527 5.79135 12.7297 5.69963 12.4245C5.60791 12.1185 5.28496 11.9451 4.97974 12.0368C4.02553 12.3243 3.28406 12.7182 2.83856 13.1536C2.44701 13.5352 2.25586 13.9622 2.25586 14.3953C2.25586 14.9364 2.56185 15.4759 3.18386 15.9261C4.27526 16.7153 6.46731 17.2857 9.00004 17.2857C11.5328 17.2857 13.7248 16.7153 14.8162 15.9261C15.4382 15.4759 15.7442 14.9364 15.7442 14.3953C15.7442 13.9622 15.5531 13.5352 15.1615 13.1536C14.716 12.7182 13.9746 12.3243 13.0203 12.0368C12.7151 11.9451 12.3922 12.1185 12.3005 12.4245C12.2087 12.7297 12.3822 13.0527 12.6874 13.1444Z" fill="#1D221F"/>
</svg>
