<svg width="37" height="37" viewBox="0 0 37 37" fill="none" xmlns="http://www.w3.org/2000/svg">
<rect x="0.5" y="1.19986" width="36" height="35" rx="3.5" fill="white" fill-opacity="0.07"/>
<rect x="0.5" y="1.19986" width="36" height="35" rx="3.5" stroke="url(#paint0_linear_12_100)"/>
<path d="M25.8332 10.3138H11.1668C9.69637 10.3138 8.5 11.5101 8.5 12.9805V21.7188C8.5 23.1892 9.69637 24.3856 11.1668 24.3856H16.0096L17.9803 26.837C18.1067 26.9943 18.298 27.086 18.5 27.086C18.702 27.086 18.893 26.9943 19.0197 26.837L20.9901 24.3856H25.8332C27.3036 24.3856 28.5 23.1892 28.5 21.7188V12.9805C28.5 11.5101 27.3036 10.3138 25.8332 10.3138ZM27.1666 21.7188C27.1666 22.4542 26.5686 23.0522 25.8332 23.0522H20.6707C20.4691 23.0522 20.2777 23.1438 20.1511 23.3012L18.5 25.3549L16.8489 23.3012C16.7226 23.1438 16.5313 23.0522 16.3293 23.0522H11.1668C10.4314 23.0522 9.83338 22.4542 9.83338 21.7188V12.9805C9.83338 12.2451 10.4314 11.6471 11.1668 11.6471H25.8332C26.5686 11.6471 27.1666 12.2451 27.1666 12.9805V21.7188Z" fill="white" fill-opacity="0.88"/>
<path d="M20.6104 16.683H19.1667V15.2393C19.1667 14.8712 18.868 14.5726 18.5 14.5726C18.132 14.5726 17.8333 14.8712 17.8333 15.2393V16.683H16.3893C16.0212 16.683 15.7226 16.9817 15.7226 17.3497C15.7226 17.7177 16.0212 18.0164 16.3893 18.0164H17.8333V19.4604C17.8333 19.8284 18.132 20.1271 18.5 20.1271C18.868 20.1271 19.1667 19.8284 19.1667 19.4604V18.0164H20.6104C20.9784 18.0164 21.2771 17.7177 21.2771 17.3497C21.2771 16.9817 20.9784 16.683 20.6104 16.683Z" fill="white" fill-opacity="0.88"/>
<defs>
<linearGradient id="paint0_linear_12_100" x1="13.0588" y1="-0.500141" x2="38.5129" y2="34.4063" gradientUnits="userSpaceOnUse">
<stop stop-color="#D1D1D1"/>
<stop offset="1" stop-color="#949494"/>
</linearGradient>
</defs>
</svg>
