<svg width="18" height="16" viewBox="0 0 18 16" fill="none" xmlns="http://www.w3.org/2000/svg">
<g clip-path="url(#clip0_28_85)">
<path d="M14.3033 2.69668C12.8868 1.28012 11.0033 0.5 9 0.5C6.99668 0.5 5.11324 1.28012 3.69668 2.69668C2.28012 4.11324 1.5 5.99668 1.5 8C1.5 10.0033 2.28015 11.8867 3.69668 13.3033C5.11321 14.7199 6.99668 15.5 9 15.5C11.0033 15.5 12.8868 14.7199 14.3033 13.3033C15.7199 11.8868 16.5 10.0033 16.5 8C16.5 5.99668 15.7199 4.11327 14.3033 2.69668ZM9 7.53125C10.1631 7.53125 11.1094 8.47751 11.1094 9.64062C11.1094 10.6038 10.4602 11.4177 9.57662 11.6692C9.51313 11.6873 9.46875 11.7444 9.46875 11.8104V12.2055C9.46875 12.4579 9.27478 12.6751 9.02265 12.687C8.75344 12.6996 8.53125 12.4851 8.53125 12.2188V11.8103C8.53125 11.7445 8.48713 11.6874 8.42382 11.6693C7.54397 11.4192 6.89651 10.6113 6.89065 9.65372C6.8891 9.39811 7.09008 9.1794 7.34561 9.17208C7.61077 9.16446 7.82812 9.37716 7.82812 9.64062C7.82812 10.3145 8.39991 10.8574 9.08376 10.8096C9.66103 10.7692 10.1286 10.3016 10.1689 9.72433C10.2167 9.04045 9.67386 8.46875 9 8.46875C7.83688 8.46875 6.89062 7.52249 6.89062 6.35938C6.89062 5.39618 7.53976 4.58226 8.42338 4.33077C8.48687 4.3127 8.53125 4.2556 8.53125 4.18959V3.79449C8.53125 3.54207 8.72522 3.32489 8.97735 3.31303C9.24656 3.30037 9.46875 3.51485 9.46875 3.78125V4.18968C9.46875 4.25551 9.51287 4.31264 9.57618 4.33065C10.456 4.58085 11.1035 5.38865 11.1093 6.34628C11.1109 6.60189 10.9099 6.8206 10.6544 6.82792C10.3892 6.83554 10.1719 6.62284 10.1719 6.35938C10.1719 5.68549 9.60009 5.14262 8.91624 5.19043C8.33897 5.23077 7.87137 5.69841 7.83105 6.27567C7.7833 6.95955 8.32614 7.53125 9 7.53125Z" fill="#1D221F"/>
</g>
<defs>
<clipPath id="clip0_28_85">
<rect width="15" height="15" fill="white" transform="translate(1.5 0.5)"/>
</clipPath>
</defs>
</svg>
