<svg width="37" height="37" viewBox="0 0 37 37" fill="none" xmlns="http://www.w3.org/2000/svg">
<rect x="0.5" y="1.19986" width="36" height="35" rx="3.5" fill="white" fill-opacity="0.07"/>
<rect x="0.5" y="1.19986" width="36" height="35" rx="3.5" stroke="url(#paint0_linear_14_153)"/>
<path d="M23.25 17.8362H13.75C13.1455 17.8362 10.7273 17.4044 10.7273 15.2453C10.7273 13.0862 13.1455 12.6544 13.75 12.6544H22.9909C23.3364 13.6908 24.2864 14.3817 25.4091 14.3817C26.8773 14.3817 28 13.259 28 11.7908C28 10.3226 26.8773 9.19986 25.4091 9.19986C24.2864 9.19986 23.3364 9.89077 22.9909 10.9271H13.75C11.7636 10.9271 9 12.309 9 15.2453C9 18.1817 11.7636 19.5635 13.75 19.5635H23.25C23.8545 19.5635 26.2727 19.9953 26.2727 22.1544C26.2727 24.3135 23.8545 24.7453 23.25 24.7453H14.0091C13.6636 23.709 12.7136 23.018 11.5909 23.018C10.1227 23.018 9 24.1408 9 25.609C9 27.0771 10.1227 28.1999 11.5909 28.1999C12.7136 28.1999 13.6636 27.509 14.0091 26.4726H23.25C25.2364 26.4726 28 25.0908 28 22.1544C28 19.218 25.2364 17.8362 23.25 17.8362ZM25.4091 10.9271C25.9273 10.9271 26.2727 11.2726 26.2727 11.7908C26.2727 12.309 25.9273 12.6544 25.4091 12.6544C24.8909 12.6544 24.5455 12.309 24.5455 11.7908C24.5455 11.2726 24.8909 10.9271 25.4091 10.9271ZM11.5909 26.4726C11.0727 26.4726 10.7273 26.1271 10.7273 25.609C10.7273 25.0908 11.0727 24.7453 11.5909 24.7453C12.1091 24.7453 12.4545 25.0908 12.4545 25.609C12.4545 26.1271 12.1091 26.4726 11.5909 26.4726Z" fill="white" fill-opacity="0.88"/>
<defs>
<linearGradient id="paint0_linear_14_153" x1="13.0588" y1="-0.500141" x2="38.5129" y2="34.4063" gradientUnits="userSpaceOnUse">
<stop stop-color="#D1D1D1"/>
<stop offset="1" stop-color="#949494"/>
</linearGradient>
</defs>
</svg>
