<svg width="56" height="18" viewBox="0 0 56 18" fill="none" xmlns="http://www.w3.org/2000/svg">
<path fill-rule="evenodd" clip-rule="evenodd" d="M10.6465 14.0884C11.6906 14.0884 12.5409 14.9653 12.5409 16.0421C12.5409 17.123 11.6906 18 10.6465 18C9.59845 18 8.74816 17.123 8.74816 16.0421C8.74816 14.9653 9.59845 14.0884 10.6465 14.0884ZM28.3564 14.0884C29.4005 14.0884 30.2508 14.9653 30.2508 16.0421C30.2508 17.123 29.4005 18 28.3564 18C27.3083 18 26.462 17.123 26.462 16.0421C26.462 14.9653 27.3083 14.0884 28.3564 14.0884ZM4.4334 14.0884C5.47749 14.0884 6.32778 14.9653 6.32778 16.0421C6.32778 17.123 5.47749 18 4.4334 18C3.38536 18 2.53902 17.123 2.53902 16.0421C2.53902 14.9653 3.38536 14.0884 4.4334 14.0884ZM51.8206 14.0884C52.8647 14.0884 53.715 14.9653 53.715 16.0421C53.715 17.123 52.8647 18 51.8206 18C50.7725 18 49.9222 17.123 49.9222 16.0421C49.9222 14.9653 50.7725 14.0884 51.8206 14.0884ZM22.1433 14.0884C23.1913 14.0884 24.0416 14.9653 24.0416 16.0421C24.0416 17.123 23.1913 18 22.1433 18C21.0992 18 20.2489 17.123 20.2489 16.0421C20.2489 14.9653 21.0992 14.0884 22.1433 14.0884ZM10.6465 14.6227C9.8832 14.6227 9.26229 15.2631 9.26229 16.0462C9.26229 16.8294 9.8832 17.4697 10.6465 17.4697C11.4058 17.4697 12.0267 16.8294 12.0267 16.0462C12.0267 15.2631 11.4058 14.6227 10.6465 14.6227ZM28.3564 14.6227C27.5931 14.6227 26.9761 15.2631 26.9761 16.0462C26.9761 16.8294 27.5931 17.4697 28.3564 17.4697C29.1197 17.4697 29.7366 16.8294 29.7366 16.0462C29.7366 15.2631 29.1197 14.6227 28.3564 14.6227ZM4.4334 14.6227C3.67011 14.6227 3.0492 15.2631 3.0492 16.0462C3.0492 16.8294 3.67011 17.4697 4.4334 17.4697C5.19669 17.4697 5.81365 16.8294 5.81365 16.0462C5.81365 15.2631 5.19669 14.6227 4.4334 14.6227ZM51.8206 14.6227C51.0573 14.6227 50.4364 15.2631 50.4364 16.0462C50.4364 16.8294 51.0573 17.4697 51.8206 17.4697C52.5799 17.4697 53.2008 16.8294 53.2008 16.0462C53.2008 15.2631 52.5799 14.6227 51.8206 14.6227ZM22.1433 14.6227C21.38 14.6227 20.763 15.2631 20.763 16.0462C20.763 16.8294 21.38 17.4697 22.1433 17.4697C22.9066 17.4697 23.5275 16.8294 23.5275 16.0462C23.5275 15.2631 22.9066 14.6227 22.1433 14.6227ZM28.3564 15.5976C28.5937 15.5976 28.7875 15.7974 28.7875 16.0462C28.7875 16.295 28.5937 16.4949 28.3564 16.4949C28.1191 16.4949 27.9253 16.295 27.9253 16.0462C27.9253 15.7974 28.1191 15.5976 28.3564 15.5976ZM51.8206 15.5976C52.0579 15.5976 52.2517 15.7974 52.2517 16.0462C52.2517 16.295 52.0579 16.4949 51.8206 16.4949C51.5793 16.4949 51.3855 16.295 51.3855 16.0462C51.3855 15.7974 51.5793 15.5976 51.8206 15.5976ZM10.6465 15.5976C10.8838 15.5976 11.0776 15.7974 11.0776 16.0462C11.0776 16.295 10.8838 16.4949 10.6465 16.4949C10.4052 16.4949 10.2115 16.295 10.2115 16.0462C10.2115 15.7974 10.4052 15.5976 10.6465 15.5976ZM4.4334 15.5976C4.67069 15.5976 4.86448 15.7974 4.86448 16.0462C4.86448 16.295 4.67069 16.4949 4.4334 16.4949C4.19215 16.4949 3.99837 16.295 3.99837 16.0462C3.99837 15.7974 4.19215 15.5976 4.4334 15.5976ZM22.1433 15.5976C22.3845 15.5976 22.5783 15.7974 22.5783 16.0462C22.5783 16.295 22.3845 16.4949 22.1433 16.4949C21.906 16.4949 21.7122 16.295 21.7122 16.0462C21.7122 15.7974 21.906 15.5976 22.1433 15.5976ZM8.52273 14.0925H6.55321C6.90519 14.4963 7.14644 15.002 7.2374 15.5527H7.83854C7.9295 14.998 8.1747 14.4963 8.52273 14.0925ZM26.2366 14.0925H24.2631C24.6151 14.4963 24.8603 15.002 24.9512 15.5527H25.5524C25.6433 14.998 25.8846 14.4963 26.2366 14.0925ZM2.3136 14.0925H0V15.5527H1.6294C1.72037 14.998 1.96161 14.4963 2.3136 14.0925ZM36.4797 14.0925H30.4762C30.8282 14.4963 31.0694 15.002 31.1604 15.5527H36.4797V14.0925ZM20.0235 14.0925H12.7663C13.1143 14.4963 13.3595 15.002 13.4505 15.5527H19.3393C19.4302 14.998 19.6754 14.4963 20.0235 14.0925ZM54.6246 15.5527H55.7122C55.9811 14.2842 56.0681 12.053 55.9455 10.5153C55.902 9.94426 55.8427 9.47111 55.7319 9.22638C55.3523 8.99388 54.7314 8.83888 53.8652 8.71652C52.3308 8.49626 50.0844 8.42284 47.0708 8.43508C46.8414 8.43508 46.6437 8.26377 46.6041 8.03127C45.6154 2.17811 40.3752 0.191706 34.6604 0.00407856C34.5457 0.00407856 34.439 0.0448661 34.3599 0.126443C34.2808 0.203942 34.2373 0.31407 34.2373 0.428278V13.1094H36.9542C37.2153 13.1094 37.4288 13.3338 37.4288 13.5989V15.5527L49.0126 15.5568C49.2381 14.17 50.4126 13.1135 51.8206 13.1135C53.2285 13.1135 54.3992 14.17 54.6246 15.5568V15.5527ZM0 0V13.1094H31.5677V0H0ZM6.28428 9.26716V10.1604H29.1711V9.26716H6.28428ZM41.8622 2.52073C41.795 2.4881 41.7238 2.47179 41.6526 2.47179H39.5803C39.3153 2.47179 39.1057 2.69205 39.1057 2.96125V7.94561C39.1057 8.21482 39.3153 8.43508 39.5803 8.43508H45.2318C45.3702 8.43508 45.5047 8.36981 45.5917 8.25969C45.6826 8.14956 45.7222 8.0068 45.6985 7.86404C45.2713 5.21278 43.8278 3.52413 41.8622 2.52073ZM41.5379 3.45071H40.0549V7.45615H44.6504C44.1877 5.52685 43.0447 4.24609 41.5379 3.45071ZM6.28428 6.10605V6.99932H29.1711V6.10605H6.28428ZM6.28428 2.94493V3.83821H29.1711V2.94493H6.28428Z" fill="#083922"/>
</svg>
