<svg width="18" height="14" viewBox="0 0 18 14" fill="none" xmlns="http://www.w3.org/2000/svg">
<path d="M15.1818 3.90907H12.8636V0.818176H2.04546C1.19158 0.818176 0.5 1.50975 0.5 2.36364V10.8636H2.04546C2.04546 12.1425 3.08477 13.1818 4.36364 13.1818C5.64252 13.1818 6.68182 12.1425 6.68182 10.8636H11.3182C11.3182 12.1425 12.3575 13.1818 13.6364 13.1818C14.9152 13.1818 15.9545 12.1425 15.9545 10.8636H17.5V7L15.1818 3.90907ZM4.36364 12.0227C3.72227 12.0227 3.20455 11.505 3.20455 10.8636C3.20455 10.2222 3.72227 9.70452 4.36364 9.70452C5.00502 9.70452 5.52273 10.2222 5.52273 10.8636C5.52273 11.505 5.00498 12.0227 4.36364 12.0227ZM13.6364 12.0227C12.995 12.0227 12.4773 11.505 12.4773 10.8636C12.4773 10.2222 12.995 9.70452 13.6364 9.70452C14.2777 9.70452 14.7954 10.2222 14.7954 10.8636C14.7954 11.505 14.2777 12.0227 13.6364 12.0227ZM12.8636 7V5.06819H14.7954L16.3138 7H12.8636Z" fill="#1D221F"/>
</svg>
