<svg width="36" height="19" viewBox="0 0 36 19" fill="none" xmlns="http://www.w3.org/2000/svg">
<path d="M29.3824 9.93823C26.8749 9.93823 24.796 11.7732 24.4153 14.1735H13.7647V3.58528C13.7647 1.83097 15.1869 0.408813 16.9412 0.408813H22.892C23.7824 0.408813 24.6319 0.782512 25.2335 1.43886L29.6275 6.23234H33.8824C35.0519 6.23234 36 7.18045 36 8.34999V12.5853C36 13.4624 35.2889 14.1735 34.4118 14.1735H34.3494C33.9687 11.7732 31.8898 9.93823 29.3824 9.93823ZM15.8824 6.23234H19.5882V2.52646H16.9412C16.3564 2.52646 15.8824 3.00051 15.8824 3.58528V6.23234ZM21.7059 6.23234H26.7548L23.6725 2.86981C23.4719 2.65102 23.1888 2.52646 22.892 2.52646H21.7059V6.23234ZM6.08824 9.93823C3.58078 9.93823 1.5019 11.7732 1.12116 14.1735H1.05882C0.474052 14.1735 0 13.6995 0 13.1147V8.34999C0 7.18045 0.948103 6.23234 2.11765 6.23234H11.6471V14.1735H11.0553C10.6746 11.7732 8.59569 9.93823 6.08824 9.93823ZM6.08824 18.4088C4.18773 18.4088 2.64706 16.8681 2.64706 14.9676C2.64706 13.0671 4.18773 11.5265 6.08824 11.5265C7.98875 11.5265 9.52941 13.0671 9.52941 14.9676C9.52941 16.8681 7.98875 18.4088 6.08824 18.4088ZM6.08824 16.2912C6.8192 16.2912 7.41177 15.6986 7.41177 14.9676C7.41177 14.2367 6.8192 13.6441 6.08824 13.6441C5.35727 13.6441 4.76471 14.2367 4.76471 14.9676C4.76471 15.6986 5.35727 16.2912 6.08824 16.2912ZM29.3824 18.4088C27.4818 18.4088 25.9412 16.8681 25.9412 14.9676C25.9412 13.0671 27.4818 11.5265 29.3824 11.5265C31.2829 11.5265 32.8235 13.0671 32.8235 14.9676C32.8235 16.8681 31.2829 18.4088 29.3824 18.4088ZM29.3824 16.2912C30.1133 16.2912 30.7059 15.6986 30.7059 14.9676C30.7059 14.2367 30.1133 13.6441 29.3824 13.6441C28.6514 13.6441 28.0588 14.2367 28.0588 14.9676C28.0588 15.6986 28.6514 16.2912 29.3824 16.2912Z" fill="#083922"/>
</svg>
