<svg width="33" height="19" viewBox="0 0 33 19" fill="none" xmlns="http://www.w3.org/2000/svg">
<path d="M22.5192 0H0V12.6661H22.5192V0Z" fill="#083922"/>
<path d="M33.0002 9.05789L30.6852 3.88062H23.5292V13.6203H15.2763H7.58038H2.71875V15.8345H5.034C5.01549 15.9604 5.00273 16.0881 5.00273 16.219C5.00273 17.6542 6.15677 18.8176 7.58046 18.8176C9.00414 18.8176 10.1582 17.6541 10.1582 16.219C10.1582 16.0881 10.1454 15.9604 10.1269 15.8345H12.7301C12.7116 15.9604 12.6988 16.0881 12.6988 16.219C12.6988 17.6542 13.8528 18.8176 15.2765 18.8176C16.7001 18.8176 17.8542 17.6541 17.8542 16.219C17.8542 16.0881 17.8415 15.9604 17.823 15.8345H23.5295H24.0358C24.0173 15.9604 24.0046 16.0881 24.0046 16.219C24.0046 17.6542 25.1586 18.8176 26.5823 18.8176C28.0058 18.8176 29.1599 17.6541 29.1599 16.219C29.1599 16.0881 29.1473 15.9604 29.1287 15.8345H33.0002V9.05789ZM7.58038 17.2361C7.02313 17.2361 6.57136 16.7808 6.57136 16.219C6.57136 16.0828 6.59838 15.9532 6.64643 15.8345C6.79689 15.4634 7.15807 15.2017 7.5803 15.2017C8.00253 15.2017 8.36371 15.4634 8.51417 15.8345C8.56222 15.9532 8.58924 16.0828 8.58924 16.219C8.58932 16.7808 8.13763 17.2361 7.58038 17.2361ZM15.2763 17.2361C14.7191 17.2361 14.2673 16.7808 14.2673 16.219C14.2673 16.0828 14.2943 15.9532 14.3424 15.8345C14.4928 15.4634 14.854 15.2017 15.2762 15.2017C15.6984 15.2017 16.0596 15.4634 16.21 15.8345C16.2581 15.9532 16.2852 16.0828 16.2852 16.219C16.2852 16.7808 15.8335 17.2361 15.2763 17.2361ZM26.5819 17.2361C26.0246 17.2361 25.5729 16.7808 25.5729 16.219C25.5729 16.0828 25.5999 15.9532 25.6479 15.8345C25.7984 15.4634 26.1596 15.2017 26.5818 15.2017C27.004 15.2017 27.3652 15.4634 27.5156 15.8345C27.5637 15.9532 27.5907 16.0828 27.5907 16.219C27.5909 16.7808 27.1392 17.2361 26.5819 17.2361ZM25.233 8.96045C25.1944 8.96045 25.163 8.92909 25.163 8.89042V5.39269C25.163 5.35401 25.1943 5.32266 25.233 5.32266H29.6382C29.731 5.32266 29.8151 5.37764 29.8523 5.4628L31.3805 8.96045H25.233Z" fill="#083922"/>
</svg>
